<svg width="18" height="17" viewBox="0 0 18 17" fill="none" xmlns="http://www.w3.org/2000/svg">
<path fill-rule="evenodd" clip-rule="evenodd" d="M6.85171 2.5206C5.4092 1.58909 3.36678 1.80408 2.19637 3.3126L1.91046 3.6811C0.548012 5.43715 0.744732 7.94137 2.36467 9.46313L8.79034 15.4994C8.89332 15.5961 8.954 15.6525 8.99949 15.6897C9.04498 15.6525 9.10565 15.5961 9.20864 15.4994L15.6343 9.46313C17.2542 7.94137 17.451 5.43715 16.0885 3.6811L15.8026 3.31259C14.5598 1.71073 12.3337 1.56701 10.8859 2.70733L10.2671 1.92173C12.1238 0.459474 14.9886 0.632122 16.5927 2.6996L16.8786 3.0681C18.5572 5.23168 18.3149 8.31706 16.319 10.192L9.89331 16.2282L9.87984 16.2409C9.78092 16.3338 9.68219 16.4266 9.59075 16.497C9.48846 16.5758 9.35657 16.6582 9.18476 16.6919L9.09872 16.2535L9.18476 16.6919C9.06241 16.7159 8.93656 16.7159 8.81421 16.6919L8.9105 16.2013L8.81421 16.6919C8.6424 16.6582 8.51051 16.5758 8.40822 16.497C8.31679 16.4266 8.21807 16.3338 8.11917 16.2409L8.10566 16.2282L1.68 10.192C-0.315887 8.31705 -0.558259 5.23168 1.12038 3.0681L1.40629 2.6996C3.0558 0.57356 6.03848 0.45077 7.88807 2.05071L8.2495 2.36337L7.9535 2.73856L7.103 3.81659C6.76572 4.2441 6.54647 4.52388 6.41451 4.74991C6.28973 4.96364 6.28966 5.05305 6.29984 5.10858C6.31001 5.16412 6.34177 5.24769 6.53422 5.4033C6.73774 5.56786 7.04194 5.75174 7.50888 6.03191L8.38237 6.556L8.41142 6.57343C8.80875 6.8118 9.15008 7.01657 9.39974 7.21698C9.66677 7.43134 9.89148 7.68851 9.97338 8.05274C10.0553 8.41696 9.96229 8.74558 9.81273 9.05361C9.6729 9.3416 9.45209 9.67278 9.19506 10.0583L9.17626 10.0865L8.49133 11.1139L7.65928 10.5592L8.34421 9.53178C8.62533 9.1101 8.80678 8.83593 8.91316 8.61684C9.01321 8.41078 9.00979 8.32569 8.99775 8.27213C8.9857 8.21856 8.95236 8.14019 8.77374 7.9968C8.58381 7.84434 8.30246 7.67424 7.86788 7.41349L6.99439 6.8894L6.964 6.87117C6.53592 6.61435 6.17013 6.3949 5.90547 6.18091C5.62351 5.95293 5.38751 5.67794 5.31621 5.2888C5.24491 4.89966 5.3681 4.55887 5.55091 4.24573C5.72251 3.95181 5.98674 3.61692 6.29596 3.22502L6.31791 3.1972L6.85171 2.5206Z" fill="#7D869E"/>
</svg>
