<svg width="20" height="20" viewBox="0 0 20 20" fill="none" xmlns="http://www.w3.org/2000/svg">
<path d="M19.7407 17.875C18.3412 15.4643 16.1012 13.6549 13.4501 12.7938C14.7208 12.0381 15.7083 10.8861 16.2609 9.51479C16.8135 8.14347 16.9005 6.62865 16.5087 5.20306C16.1168 3.77746 15.2678 2.51995 14.0919 1.6237C12.9161 0.727446 11.4785 0.242035 10.0001 0.242035C8.5216 0.242035 7.08403 0.727446 5.90819 1.6237C4.73235 2.51995 3.88329 3.77746 3.49145 5.20306C3.09961 6.62865 3.18666 8.14347 3.73922 9.51479C4.29179 10.8861 5.2793 12.0381 6.55007 12.7938C3.89891 13.6549 1.65888 15.4643 0.259441 17.875C0.200744 17.9602 0.160293 18.0565 0.140631 18.1581C0.120969 18.2596 0.12252 18.3641 0.145188 18.465C0.167855 18.5659 0.211148 18.6611 0.272347 18.7444C0.333546 18.8278 0.411328 18.8976 0.500805 18.9495C0.590282 19.0014 0.689521 19.0342 0.792285 19.0459C0.895049 19.0575 0.999117 19.0478 1.09795 19.0174C1.19678 18.9869 1.28824 18.9363 1.36659 18.8688C1.44493 18.8013 1.50846 18.7183 1.55319 18.625C2.41042 17.1437 3.64211 15.9139 5.1247 15.059C6.60728 14.204 8.28863 13.754 10.0001 13.754C11.7115 13.754 13.3928 14.204 14.8754 15.059C16.358 15.9139 17.5897 17.1437 18.4469 18.625C18.4917 18.7183 18.5552 18.8013 18.6335 18.8688C18.7119 18.9363 18.8033 18.9869 18.9022 19.0174C19.001 19.0478 19.1051 19.0575 19.2078 19.0459C19.3106 19.0342 19.4098 19.0014 19.4993 18.9495C19.5888 18.8976 19.6666 18.8278 19.7278 18.7444C19.789 18.6611 19.8323 18.5659 19.8549 18.465C19.8776 18.3641 19.8792 18.2596 19.8595 18.1581C19.8398 18.0565 19.7994 17.9602 19.7407 17.875ZM4.75007 7.00001C4.75007 5.96166 5.05797 4.94662 5.63485 4.08326C6.21173 3.21991 7.03167 2.547 7.99098 2.14964C8.95029 1.75228 10.0059 1.64831 11.0243 1.85089C12.0427 2.05346 12.9781 2.55347 13.7124 3.2877C14.4466 4.02192 14.9466 4.95738 15.1492 5.97578C15.3518 6.99418 15.2478 8.04978 14.8504 9.0091C14.4531 9.96841 13.7802 10.7883 12.9168 11.3652C12.0535 11.9421 11.0384 12.25 10.0001 12.25C8.60768 12.25 7.27232 11.6969 6.28776 10.7123C5.30319 9.72775 4.75007 8.39239 4.75007 7.00001Z" fill="#3CDC86"/>
</svg>
