<svg width="19" height="18" viewBox="0 0 19 18" fill="none" xmlns="http://www.w3.org/2000/svg">
<path d="M10.9944 1.74363H11.4944V1.72239L11.4926 1.70123L10.9944 1.74363ZM10.9944 1.7436L11.4926 1.70119L11.4919 1.69384L10.9944 1.7436ZM10.9944 1.74365H10.4944V1.76858L10.4969 1.7934L10.9944 1.74365ZM11.1149 2.52584L10.6526 2.71631L10.6526 2.71631L11.1149 2.52584ZM12.4239 3.06806L12.2317 2.60649L12.2317 2.60649L12.4239 3.06806ZM13.0622 2.60019L13.3789 2.98716V2.98716L13.0622 2.60019ZM13.4165 2.33577L13.6505 2.7776L13.6505 2.7776L13.4165 2.33577ZM14.4383 2.38673L14.7151 1.97038L14.7151 1.97038L14.4383 2.38673ZM14.7644 2.68508L15.118 2.33153V2.33153L14.7644 2.68508ZM15.515 3.43562L15.1614 3.78917L15.1671 3.79487L15.173 3.80038L15.515 3.43562ZM15.515 3.43563L15.8685 3.08207L15.8628 3.07637L15.8569 3.07086L15.515 3.43563ZM15.8133 3.76174L16.2296 3.48487L16.2296 3.48487L15.8133 3.76174ZM15.8643 4.78359L15.4224 4.54953V4.54953L15.8643 4.78359ZM15.5999 5.13777L15.2129 4.82113L15.2094 4.82542L15.5999 5.13777ZM15.5999 5.13778L15.9869 5.45442L15.9903 5.45013L15.5999 5.13778ZM15.132 5.77604L15.5936 5.96827V5.96827L15.132 5.77604ZM15.6742 7.0851L15.4838 7.54741L15.6742 7.0851ZM16.4564 7.20561L16.4067 7.70312L16.4564 7.20561ZM16.8939 7.2691L17.0408 6.79117L16.8939 7.2691ZM17.5804 8.02768L18.0705 7.92904V7.92904L17.5804 8.02768ZM17.5804 9.97219L17.0902 9.87358V9.87359L17.5804 9.97219ZM16.8938 10.7309L17.0407 11.2088L17.0407 11.2088L16.8938 10.7309ZM16.4565 10.7943L16.5062 11.2918H16.5062L16.4565 10.7943ZM16.4564 10.7943L16.4067 10.2968L16.4067 10.2968L16.4564 10.7943ZM15.6746 10.9148L15.865 11.3771L15.865 11.3771L15.6746 10.9148ZM15.1323 12.224L15.5938 12.0317L15.5938 12.0317L15.1323 12.224ZM15.6 12.862L15.213 13.1786L15.213 13.1786L15.6 12.862ZM15.8643 13.216L16.3061 12.9819L16.3061 12.9819L15.8643 13.216ZM15.8133 14.238L16.2296 14.5149L16.2296 14.5149L15.8133 14.238ZM15.5151 14.564L15.1615 14.2104L15.1615 14.2104L15.5151 14.564ZM14.7645 15.3146L15.118 15.6681L14.7645 15.3146ZM14.7645 15.3146L15.118 15.6681L15.118 15.6681L14.7645 15.3146ZM14.4383 15.6129L14.7152 16.0293L14.7152 16.0293L14.4383 15.6129ZM13.4165 15.6639L13.6505 15.2221H13.6505L13.4165 15.6639ZM13.0623 15.3995L13.3789 15.0125L13.36 14.997L13.3396 14.9835L13.0623 15.3995ZM13.0623 15.3995L12.7457 15.7865L12.7646 15.8019L12.7849 15.8155L13.0623 15.3995ZM12.424 14.9316L12.2318 15.3932L12.424 14.9316ZM11.1149 15.4738L10.6526 15.2834V15.2834L11.1149 15.4738ZM10.9944 16.2562L11.4919 16.3059L10.9944 16.2562ZM10.9309 16.6939L10.4529 16.547L10.4529 16.547L10.9309 16.6939ZM10.1724 17.3803L10.2711 17.8705H10.2711L10.1724 17.3803ZM8.22773 17.3804L8.32637 16.8902H8.32637L8.22773 17.3804ZM7.46916 16.6939L7.94709 16.5469L7.94709 16.5469L7.46916 16.6939ZM7.40566 16.2564L6.90815 16.3061L7.40566 16.2564ZM7.28515 15.4742L6.82285 15.6646L6.82285 15.6646L7.28515 15.4742ZM5.97613 14.932L6.16834 15.3935H6.16834L5.97613 14.932ZM5.33778 15.3999L5.6544 15.7869L5.6544 15.7869L5.33778 15.3999ZM4.98352 15.6643L5.21757 16.1062H5.21757L4.98352 15.6643ZM3.96172 15.6134L3.68487 16.0297L3.68487 16.0297L3.96172 15.6134ZM3.63554 15.315L3.9891 14.9614L3.63554 15.315ZM2.88507 14.5645L2.53152 14.9181H2.53152L2.88507 14.5645ZM2.58667 14.2383L2.1703 14.5151H2.1703L2.58667 14.2383ZM2.5357 13.2165L2.97755 13.4506L2.97755 13.4506L2.5357 13.2165ZM2.80018 12.8622L2.42389 12.533L2.41844 12.5392L2.4132 12.5456L2.80018 12.8622ZM2.80019 12.8622L3.17648 13.1915L3.18193 13.1853L3.18717 13.1789L2.80019 12.8622ZM3.26812 12.2239L2.80653 12.0316L2.80653 12.0316L3.26812 12.2239ZM2.72591 10.9149L2.53543 11.3771L2.53543 11.3772L2.72591 10.9149ZM1.94364 10.7943L1.89389 11.2918L1.89389 11.2918L1.94364 10.7943ZM1.50616 10.7308L1.35922 11.2087L1.35923 11.2088L1.50616 10.7308ZM0.819674 9.97227L0.329502 10.0709L0.819674 9.97227ZM0.800018 9.53064H0.300018H0.800018ZM0.800018 8.46937H1.30002H0.800018ZM0.819686 8.0276L0.32952 7.92892L0.819686 8.0276ZM1.5061 7.26912L1.65306 7.74704L1.65306 7.74704L1.5061 7.26912ZM1.94372 7.2056L1.99347 7.70311L1.94372 7.2056ZM2.72623 7.08502L2.53571 6.62274H2.5357L2.72623 7.08502ZM3.26838 5.77614L2.80678 5.9683L2.80678 5.9683L3.26838 5.77614ZM2.80029 5.13752L2.40029 5.43752L2.40662 5.44596L2.41331 5.45413L2.80029 5.13752ZM2.80028 5.13751L3.20028 4.83751L3.19395 4.82907L3.18726 4.82089L2.80028 5.13751ZM2.5357 4.78306L2.09384 5.01707L2.5357 4.78306ZM2.58666 3.76143L2.17027 3.48462L2.17027 3.48463L2.58666 3.76143ZM3.96176 2.38631L4.23861 2.80266H4.23861L3.96176 2.38631ZM4.98355 2.33534L5.2176 1.8935L5.2176 1.8935L4.98355 2.33534ZM5.33787 2.59984L5.65449 2.21287V2.21287L5.33787 2.59984ZM5.97604 3.06765L5.78377 3.52921V3.52921L5.97604 3.06765ZM7.28523 2.52537L7.74756 2.71578L7.28523 2.52537ZM7.40567 1.7435L6.91248 1.6613L6.90979 1.67746L6.90816 1.69375L7.40567 1.7435ZM7.40568 1.74349L7.89887 1.82569L7.90157 1.80954L7.9032 1.79324L7.40568 1.74349ZM7.46913 1.30624L6.99119 1.15936L6.99119 1.15936L7.46913 1.30624ZM8.22782 0.619641L8.32642 1.10982V1.10982L8.22782 0.619641ZM10.1723 0.61966L10.0737 1.10983L10.0737 1.10983L10.1723 0.61966ZM10.9309 1.30615L11.4088 1.15922V1.15922L10.9309 1.30615ZM11.4926 1.70123L11.4926 1.7012L10.4962 1.786L10.4962 1.78603L11.4926 1.70123ZM11.4944 1.74365V1.74363H10.4944V1.74365H11.4944ZM11.5772 2.33538C11.5739 2.32727 11.5613 2.29011 11.5449 2.17509C11.5289 2.06318 11.5139 1.91383 11.4919 1.69389L10.4969 1.7934C10.518 2.00456 10.5353 2.17854 10.5549 2.31606C10.574 2.45048 10.6001 2.58887 10.6526 2.71631L11.5772 2.33538ZM12.2317 2.60649C11.9761 2.71293 11.6827 2.59138 11.5772 2.33538L10.6526 2.71631C10.969 3.48433 11.8493 3.84897 12.6162 3.52964L12.2317 2.60649ZM12.7456 2.21321C12.5746 2.35317 12.4583 2.44814 12.3679 2.51601C12.275 2.58576 12.2398 2.60312 12.2317 2.60649L12.6161 3.52964C12.7434 3.47665 12.8597 3.39725 12.9683 3.31573C13.0794 3.23234 13.2146 3.12155 13.3789 2.98716L12.7456 2.21321ZM13.1824 1.89393C13.0394 1.96968 12.9049 2.08287 12.7456 2.21321L13.3789 2.98716C13.5745 2.82711 13.6174 2.79512 13.6505 2.7776L13.1824 1.89393ZM14.7151 1.97038C14.2569 1.66568 13.6687 1.63634 13.1824 1.89393L13.6505 2.7776C13.8126 2.69174 14.0087 2.70152 14.1614 2.80308L14.7151 1.97038ZM15.118 2.33153C14.9724 2.18599 14.8499 2.05998 14.7151 1.97038L14.1614 2.80308C14.1926 2.8238 14.2322 2.85992 14.4109 3.03864L15.118 2.33153ZM15.8685 3.08206L15.118 2.33153L14.4109 3.03864L15.1614 3.78917L15.8685 3.08206ZM15.8569 3.07086L15.8569 3.07085L15.173 3.80038L15.173 3.8004L15.8569 3.07086ZM16.2296 3.48487C16.1401 3.35014 16.0141 3.2276 15.8685 3.08207L15.1614 3.78918C15.3401 3.96788 15.3762 4.00745 15.397 4.0386L16.2296 3.48487ZM16.3061 5.01765C16.5637 4.53138 16.5344 3.9431 16.2296 3.48487L15.3969 4.0386C15.4985 4.19134 15.5083 4.38744 15.4224 4.54953L16.3061 5.01765ZM15.9868 5.45438C16.1172 5.29511 16.2304 5.16063 16.3061 5.01765L15.4224 4.54953C15.4049 4.58259 15.3729 4.62555 15.2129 4.82115L15.9868 5.45438ZM15.9903 5.45013L15.9903 5.45011L15.2094 4.82542L15.2094 4.82543L15.9903 5.45013ZM15.5936 5.96827C15.597 5.96017 15.6143 5.92498 15.6841 5.83208C15.7519 5.74169 15.8469 5.62545 15.9868 5.4544L15.2129 4.82116C15.0785 4.98539 14.9677 5.12063 14.8843 5.23171C14.8028 5.34029 14.7234 5.45658 14.6704 5.58382L15.5936 5.96827ZM15.8647 6.6228C15.6087 6.51733 15.4871 6.22388 15.5936 5.96827L14.6704 5.58382C14.3511 6.35065 14.7157 7.23099 15.4838 7.54741L15.8647 6.6228ZM16.5062 6.70809C16.2862 6.68609 16.1369 6.67106 16.025 6.65512C15.91 6.63874 15.8728 6.62614 15.8647 6.6228L15.4838 7.54741C15.6112 7.59991 15.7496 7.626 15.884 7.64514C16.0215 7.66472 16.1955 7.68201 16.4067 7.70312L16.5062 6.70809ZM17.0408 6.79117C16.8861 6.74363 16.711 6.72857 16.5062 6.70809L16.4067 7.70312C16.6582 7.72827 16.7112 7.73603 16.7469 7.74703L17.0408 6.79117ZM18.0705 7.92904C17.962 7.38958 17.5668 6.95287 17.0408 6.79117L16.7469 7.74703C16.9223 7.80093 17.054 7.9465 17.0902 8.12632L18.0705 7.92904ZM18.1 8.46927C18.1 8.26345 18.1025 8.08768 18.0705 7.92904L17.0902 8.12631C17.0976 8.163 17.1 8.21652 17.1 8.46927H18.1ZM18.1 9.53074V8.46927H17.1V9.53074H18.1ZM18.0706 10.0708C18.1025 9.91222 18.1 9.7365 18.1 9.53074H17.1C17.1 9.78341 17.0976 9.83691 17.0902 9.87358L18.0706 10.0708ZM17.0407 11.2088C17.5667 11.0471 17.962 10.6103 18.0706 10.0708L17.0902 9.87359C17.054 10.0534 16.9223 10.199 16.7469 10.2529L17.0407 11.2088ZM16.5062 11.2918C16.711 11.2714 16.8861 11.2563 17.0407 11.2088L16.7469 10.2529C16.7112 10.2639 16.6582 10.2717 16.4067 10.2968L16.5062 11.2918ZM16.5062 11.2918L16.5062 11.2918L16.4067 10.2968L16.4067 10.2968L16.5062 11.2918ZM15.865 11.3771C15.8731 11.3738 15.9102 11.3612 16.0252 11.3448C16.1371 11.3289 16.2864 11.3138 16.5062 11.2918L16.4067 10.2968C16.1956 10.3179 16.0217 10.3352 15.8843 10.3548C15.7499 10.3739 15.6116 10.4 15.4842 10.4524L15.865 11.3771ZM15.5938 12.0317C15.4873 11.7761 15.6089 11.4825 15.865 11.3771L15.4842 10.4524C14.716 10.7688 14.3512 11.6493 14.6707 12.4163L15.5938 12.0317ZM15.9869 12.5453C15.847 12.3744 15.7521 12.2582 15.6843 12.1678C15.6146 12.075 15.5972 12.0398 15.5938 12.0317L14.6707 12.4163C14.7237 12.5434 14.8031 12.6597 14.8846 12.7682C14.9679 12.8792 15.0787 13.0144 15.213 13.1786L15.9869 12.5453ZM16.3061 12.9819C16.2303 12.839 16.1172 12.7046 15.9869 12.5453L15.213 13.1786C15.373 13.3741 15.4049 13.4171 15.4225 13.4501L16.3061 12.9819ZM16.2296 14.5149C16.5344 14.0566 16.5638 13.4682 16.3061 12.9819L15.4224 13.4501C15.5083 13.6122 15.4986 13.8083 15.397 13.9611L16.2296 14.5149ZM15.8686 14.9175C16.0141 14.7721 16.14 14.6496 16.2296 14.5149L15.397 13.9611C15.3763 13.9922 15.3402 14.0318 15.1615 14.2104L15.8686 14.9175ZM15.118 15.6681L15.8686 14.9175L15.1615 14.2104L14.4109 14.961L15.118 15.6681ZM15.118 15.6681L15.118 15.6681L14.4109 14.961L14.4109 14.961L15.118 15.6681ZM14.7152 16.0293C14.8499 15.9397 14.9725 15.8137 15.118 15.6681L14.4109 14.961C14.2322 15.1398 14.1926 15.1759 14.1615 15.1966L14.7152 16.0293ZM13.1824 16.1057C13.6687 16.3633 14.257 16.334 14.7152 16.0293L14.1615 15.1966C14.0087 15.2981 13.8126 15.3079 13.6505 15.2221L13.1824 16.1057ZM12.7457 15.7865C12.905 15.9168 13.0394 16.03 13.1824 16.1057L13.6505 15.2221C13.6175 15.2046 13.5745 15.1726 13.3789 15.0125L12.7457 15.7865ZM12.7849 15.8155L12.7849 15.8155L13.3396 14.9835L13.3396 14.9835L12.7849 15.8155ZM12.2318 15.3932C12.2398 15.3965 12.275 15.4139 12.3679 15.4837C12.4584 15.5515 12.5746 15.6465 12.7457 15.7865L13.3789 15.0125C13.2147 14.8781 13.0794 14.7673 12.9683 14.6839C12.8597 14.6024 12.7434 14.523 12.6162 14.47L12.2318 15.3932ZM11.5772 15.6643C11.6827 15.4083 11.9761 15.2867 12.2318 15.3932L12.6162 14.47C11.8494 14.1507 10.9691 14.5153 10.6526 15.2834L11.5772 15.6643ZM11.4919 16.3059C11.5139 16.086 11.529 15.9366 11.5449 15.8246C11.5613 15.7096 11.5739 15.6724 11.5772 15.6643L10.6526 15.2834C10.6001 15.4108 10.574 15.5492 10.5549 15.6837C10.5353 15.8212 10.518 15.9952 10.4969 16.2064L11.4919 16.3059ZM11.4088 16.8409C11.4564 16.6862 11.4714 16.5109 11.4919 16.3059L10.4969 16.2064C10.4717 16.4581 10.464 16.5112 10.4529 16.547L11.4088 16.8409ZM10.2711 17.8705C10.8104 17.7619 11.2471 17.3668 11.4088 16.8409L10.4529 16.547C10.399 16.7223 10.2535 16.854 10.0737 16.8902L10.2711 17.8705ZM9.73059 17.9C9.93652 17.9 10.1124 17.9025 10.2711 17.8705L10.0737 16.8902C10.037 16.8976 9.98348 16.9 9.73059 16.9V17.9ZM8.66934 17.9H9.73059V16.9H8.66934V17.9ZM8.12909 17.8705C8.28773 17.9025 8.46351 17.9 8.66934 17.9V16.9C8.41657 16.9 8.36306 16.8976 8.32637 16.8902L8.12909 17.8705ZM6.99124 16.8408C7.15293 17.3668 7.58964 17.762 8.12909 17.8705L8.32637 16.8902C8.14655 16.854 8.00099 16.7223 7.94709 16.5469L6.99124 16.8408ZM6.90815 16.3061C6.92863 16.511 6.94368 16.6861 6.99124 16.8408L7.94709 16.5469C7.93609 16.5112 7.92833 16.4582 7.90318 16.2066L6.90815 16.3061ZM6.82285 15.6646C6.82619 15.6728 6.8388 15.7099 6.85518 15.8249C6.87111 15.9369 6.88615 16.0862 6.90815 16.3061L7.90318 16.2066C7.88207 15.9955 7.86477 15.8215 7.84519 15.684C7.82605 15.5495 7.79996 15.4112 7.74745 15.2837L6.82285 15.6646ZM6.16834 15.3935C6.42394 15.2871 6.71737 15.4086 6.82285 15.6646L7.74745 15.2837C7.43102 14.5157 6.55072 14.1511 5.78392 14.4704L6.16834 15.3935ZM5.6544 15.7869C5.82548 15.6469 5.94172 15.5519 6.03213 15.484C6.12505 15.4143 6.16024 15.3969 6.16834 15.3935L5.78392 14.4704C5.65667 14.5234 5.54035 14.6028 5.43177 14.6843C5.32067 14.7677 5.18542 14.8785 5.02116 15.0129L5.6544 15.7869ZM5.21757 16.1062C5.36057 16.0304 5.49508 15.9172 5.6544 15.7869L5.02116 15.0129C4.82551 15.173 4.78254 15.205 4.74947 15.2225L5.21757 16.1062ZM3.68487 16.0297C4.14308 16.3344 4.73132 16.3637 5.21757 16.1062L4.74947 15.2225C4.58739 15.3083 4.39131 15.2986 4.23857 15.197L3.68487 16.0297ZM3.28199 15.6685C3.42754 15.8141 3.55011 15.9401 3.68487 16.0297L4.23857 15.197C4.20741 15.1763 4.16784 15.1402 3.9891 14.9614L3.28199 15.6685ZM2.53152 14.9181L3.28199 15.6685L3.9891 14.9614L3.23862 14.211L2.53152 14.9181ZM2.1703 14.5151C2.25991 14.6499 2.38595 14.7725 2.53152 14.9181L3.23862 14.211C3.05987 14.0322 3.02375 13.9926 3.00303 13.9615L2.1703 14.5151ZM2.09386 12.9825C1.83631 13.4687 1.86564 14.057 2.1703 14.5151L3.00303 13.9615C2.90147 13.8087 2.8917 13.6127 2.97755 13.4506L2.09386 12.9825ZM2.4132 12.5456C2.28284 12.705 2.16962 12.8395 2.09386 12.9825L2.97755 13.4506C2.99507 13.4175 3.02707 13.3745 3.18716 13.1789L2.4132 12.5456ZM2.4239 12.533L2.42389 12.533L3.17647 13.1915L3.17648 13.1915L2.4239 12.533ZM2.80653 12.0316C2.80316 12.0397 2.7858 12.0749 2.71604 12.1679C2.64817 12.2583 2.55319 12.3745 2.41321 12.5456L3.18717 13.1789C3.32156 13.0146 3.43237 12.8793 3.51577 12.7682C3.59729 12.6596 3.67671 12.5433 3.7297 12.4161L2.80653 12.0316ZM2.53543 11.3772C2.79142 11.4826 2.91296 11.7761 2.80653 12.0316L3.7297 12.4161C4.04899 11.6493 3.68437 10.769 2.91639 10.4526L2.53543 11.3772ZM1.89389 11.2918C2.11385 11.3138 2.26321 11.3289 2.37513 11.3448C2.49016 11.3612 2.52732 11.3738 2.53543 11.3771L2.91639 10.4526C2.78894 10.4 2.65054 10.3739 2.5161 10.3548C2.37857 10.3352 2.20458 10.3179 1.99339 10.2968L1.89389 11.2918ZM1.35923 11.2088C1.51391 11.2563 1.68907 11.2714 1.89389 11.2918L1.99339 10.2968C1.74187 10.2717 1.68886 10.2639 1.65309 10.2529L1.35923 11.2088ZM0.329502 10.0709C0.438063 10.6104 0.833267 11.0471 1.35922 11.2087L1.65309 10.2529C1.47777 10.199 1.34603 10.0534 1.30985 9.87362L0.329502 10.0709ZM0.300018 9.53064C0.300018 9.73648 0.297574 9.91227 0.329502 10.0709L1.30985 9.87362C1.30246 9.83694 1.30002 9.78342 1.30002 9.53064H0.300018ZM0.300018 8.46937L0.300018 9.53064L1.30002 9.53064L1.30002 8.46937H0.300018ZM0.32952 7.92892C0.297572 8.08762 0.300018 8.26346 0.300018 8.46937H1.30002C1.30002 8.21651 1.30246 8.16297 1.30985 8.12628L0.32952 7.92892ZM1.35914 6.79121C0.833252 6.95292 0.438102 7.38956 0.32952 7.92892L1.30985 8.12628C1.34605 7.94649 1.47776 7.80094 1.65306 7.74704L1.35914 6.79121ZM1.89397 6.70808C1.68908 6.72857 1.51386 6.74363 1.35913 6.79121L1.65306 7.74704C1.68884 7.73604 1.74187 7.72827 1.99347 7.70311L1.89397 6.70808ZM2.5357 6.62274C2.52759 6.62608 2.49042 6.6387 2.37536 6.65509C2.2634 6.67103 2.11399 6.68608 1.89397 6.70808L1.99347 7.70311C2.20472 7.68199 2.37876 7.66469 2.51634 7.6451C2.65082 7.62595 2.78926 7.59984 2.91675 7.5473L2.5357 6.62274ZM2.80678 5.9683C2.91318 6.22388 2.79165 6.51725 2.53571 6.62274L2.91675 7.5473C3.6846 7.23084 4.04916 6.3507 3.72998 5.58398L2.80678 5.9683ZM2.41331 5.45413C2.55334 5.62529 2.64836 5.74159 2.71626 5.83204C2.78605 5.92499 2.80341 5.9602 2.80678 5.9683L3.72998 5.58398C3.67699 5.45668 3.59755 5.34031 3.516 5.23168C3.43256 5.12054 3.32172 4.98523 3.18727 4.8209L2.41331 5.45413ZM2.40029 5.43751L2.40029 5.43752L3.20029 4.83752L3.20028 4.83751L2.40029 5.43751ZM2.09384 5.01707C2.16961 5.16015 2.28289 5.29473 2.41331 5.45413L3.18726 4.82089C3.0271 4.62514 2.99509 4.58215 2.97756 4.54906L2.09384 5.01707ZM2.17027 3.48463C1.8657 3.94277 1.83637 4.53089 2.09384 5.01707L2.97756 4.54906C2.89174 4.387 2.90152 4.19096 3.00304 4.03824L2.17027 3.48463ZM2.53162 3.08154C2.386 3.22716 2.25991 3.34979 2.17027 3.48462L3.00304 4.03824C3.02377 4.00706 3.0599 3.96747 3.23873 3.78864L2.53162 3.08154ZM3.28202 2.33114L2.53162 3.08154L3.23873 3.78864L3.98913 3.03824L3.28202 2.33114ZM3.68491 1.96995C3.55015 2.05955 3.42758 2.18558 3.28202 2.33114L3.98913 3.03824C4.16787 2.8595 4.20744 2.82339 4.23861 2.80266L3.68491 1.96995ZM5.2176 1.8935C4.73135 1.63593 4.14311 1.66527 3.68491 1.96995L4.23861 2.80266C4.39134 2.70111 4.58742 2.69133 4.74951 2.77718L5.2176 1.8935ZM5.65449 2.21287C5.49514 2.08249 5.36061 1.96926 5.2176 1.8935L4.74951 2.77718C4.78257 2.7947 4.82556 2.82671 5.02125 2.98682L5.65449 2.21287ZM6.16831 2.6061C6.16023 2.60273 6.12504 2.58537 6.03215 2.51563C5.94176 2.44777 5.82553 2.35281 5.65449 2.21287L5.02125 2.98682C5.18547 3.12119 5.32069 3.23195 5.43176 3.31534C5.5403 3.39683 5.65657 3.47622 5.78377 3.52921L6.16831 2.6061ZM6.82291 2.33496C6.71745 2.59102 6.42395 2.71259 6.16831 2.6061L5.78377 3.52921C6.55067 3.84868 7.43117 3.48397 7.74756 2.71578L6.82291 2.33496ZM6.90816 1.69375C6.88617 1.91359 6.87114 2.06287 6.85521 2.17474C6.83885 2.28971 6.82625 2.32685 6.82291 2.33496L7.74756 2.71578C7.80003 2.58838 7.8261 2.45005 7.84523 2.31569C7.8648 2.17822 7.88209 2.00432 7.90319 1.79325L6.90816 1.69375ZM6.91248 1.66129L6.91248 1.6613L7.89887 1.8257L7.89887 1.82569L6.91248 1.66129ZM6.99119 1.15936C6.94368 1.31397 6.92863 1.48903 6.90816 1.69374L7.9032 1.79324C7.92833 1.54186 7.93609 1.48888 7.94707 1.45312L6.99119 1.15936ZM8.12923 0.129459C7.58967 0.237986 7.15287 0.63328 6.99119 1.15936L7.94707 1.45312C8.00097 1.27776 8.14656 1.146 8.32642 1.10982L8.12923 0.129459ZM8.66922 0.100006C8.46349 0.100006 8.28779 0.0975642 8.12922 0.129459L8.32642 1.10982C8.36309 1.10245 8.41658 1.10001 8.66922 1.10001V0.100006ZM9.73071 0.100006H8.66922V1.10001H9.73071V0.100006ZM10.271 0.129488C10.1123 0.0975618 9.93654 0.100006 9.73071 0.100006V1.10001C9.98347 1.10001 10.037 1.10245 10.0737 1.10983L10.271 0.129488ZM11.4088 1.15922C11.2471 0.633257 10.8104 0.238046 10.271 0.129487L10.0737 1.10983C10.2535 1.14602 10.3991 1.27776 10.453 1.45308L11.4088 1.15922ZM11.4919 1.69384C11.4714 1.48905 11.4564 1.31389 11.4088 1.15922L10.453 1.45308C10.464 1.48884 10.4717 1.54185 10.4969 1.79335L11.4919 1.69384ZM12.06 8.99997C12.06 10.5795 10.7796 11.86 9.20003 11.86V12.86C11.3319 12.86 13.06 11.1318 13.06 8.99997H12.06ZM9.20003 6.13997C10.7796 6.13997 12.06 7.42044 12.06 8.99997H13.06C13.06 6.86815 11.3319 5.13997 9.20003 5.13997V6.13997ZM6.34003 8.99997C6.34003 7.42044 7.6205 6.13997 9.20003 6.13997V5.13997C7.06821 5.13997 5.34003 6.86815 5.34003 8.99997H6.34003ZM9.20003 11.86C7.6205 11.86 6.34003 10.5795 6.34003 8.99997H5.34003C5.34003 11.1318 7.06821 12.86 9.20003 12.86V11.86Z" fill="#4998EE"/>
</svg>
